<svg width="115" height="95" viewBox="0 0 115 95" fill="none" xmlns="http://www.w3.org/2000/svg">
<path d="M65 0H115C79.5294 3.7551 67.692 9.09077 65 26V0Z" fill="#be000d"/>
<path d="M0 45H25C7.26468 52.2214 1.34602 62.4823 0 95V45Z" fill="#be000d"/>
<path d="M0 0H67V35C67 41.0751 62.0751 46 56 46H0V0Z" fill="#be000d"/>
<path d="M51 22.5C51 32.165 43.165 40 33.5 40C23.835 40 16 32.165 16 22.5C16 12.835 23.835 5 33.5 5C43.165 5 51 12.835 51 22.5ZM20.5794 22.5C20.5794 29.6358 26.3642 35.4206 33.5 35.4206C40.6358 35.4206 46.4206 29.6358 46.4206 22.5C46.4206 15.3642 40.6358 9.57944 33.5 9.57944C26.3642 9.57944 20.5794 15.3642 20.5794 22.5Z" fill="white"/>
</svg>
